<?xml version="1.0" encoding="UTF-8"?>
<svg id="_Слой_1" data-name="Слой 1" xmlns="http://www.w3.org/2000/svg" viewBox="0 0 2137 752">
  <defs>
    <style>
      .cls-1 {
        fill-rule: evenodd;
      }

      .cls-1, .cls-2 {
        fill: #095ec3;
      }
    </style>
  </defs>
  <path class="cls-1" d="M1253.31,375.57C835.74,263.81,418.25,111.94.5,0v751.33c417.76-111.94,835.24-263.9,1252.81-375.75Z"/>
  <path class="cls-1" d="M2095.76,433.8h40.74v-195.58h-40.74v195.58ZM1997.97,401.89c-5.1-.06-10.14-1.13-14.82-3.17-4.68-2.04-8.91-4.99-12.43-8.69-3.52-3.7-6.26-8.06-8.07-12.84-1.81-4.77-2.64-9.86-2.44-14.96-.38-5.1.31-10.22,2.02-15.04,1.7-4.82,4.39-9.23,7.89-12.96,3.5-3.73,7.73-6.69,12.43-8.7,4.7-2.01,9.77-3.02,14.88-2.97,5.11.04,10.16,1.11,14.84,3.15,4.69,2.03,8.92,4.99,12.44,8.68,3.52,3.7,6.27,8.07,8.07,12.85,1.8,4.78,2.62,9.87,2.42,14.98.38,5.1-.29,10.23-2,15.05-1.7,4.82-4.38,9.24-7.88,12.97s-7.74,6.69-12.45,8.69c-4.71,2-9.78,3-14.9,2.94ZM1997.43,437.13c10.07.34,20.11-1.35,29.52-4.95,9.41-3.61,18-9.06,25.27-16.04,7.27-6.98,13.06-15.35,17.04-24.61s6.07-19.22,6.13-29.3c.58-15.49-3.49-30.79-11.67-43.95-8.18-13.16-20.11-23.58-34.25-29.92s-29.85-8.3-45.12-5.65c-15.27,2.65-29.4,9.81-40.57,20.54-11.18,10.74-18.89,24.57-22.15,39.71-3.27,15.15-1.93,30.93,3.83,45.31,5.77,14.38,15.7,26.72,28.52,35.42,12.82,8.7,27.95,13.38,43.45,13.42ZM1786.25,433.8h40.74v-43.62l14.06-15.05,37.68,58.67h46.6l-56.7-86.98,54.71-56.69h-48.67l-47.68,52.28v-104.19h-40.74v195.58ZM1690.27,401.89c-5.11-.04-10.15-1.11-14.83-3.15-4.68-2.03-8.91-4.99-12.42-8.69-3.52-3.7-6.25-8.07-8.05-12.85-1.79-4.78-2.6-9.87-2.38-14.97-.37-5.11.32-10.23,2.03-15.06,1.71-4.83,4.4-9.24,7.91-12.97s7.76-6.69,12.47-8.69c4.71-2,9.79-3,14.91-2.94,5.09.07,10.12,1.16,14.78,3.2,4.67,2.04,8.87,5,12.38,8.7,3.5,3.7,6.23,8.06,8.02,12.83,1.79,4.77,2.6,9.85,2.4,14.94.4,5.1-.27,10.24-1.96,15.07-1.7,4.83-4.38,9.26-7.89,12.99-3.5,3.73-7.75,6.69-12.46,8.69-4.72,2-9.79,2.99-14.91,2.91ZM1690.27,437.13c10.06.31,20.09-1.39,29.49-5,9.4-3.61,17.98-9.07,25.24-16.05,7.26-6.98,13.06-15.33,17.05-24.58,3.99-9.25,6.09-19.2,6.18-29.27.59-15.51-3.46-30.85-11.65-44.04-8.18-13.19-20.12-23.63-34.28-29.99-14.17-6.36-29.9-8.33-45.2-5.68-15.29,2.65-29.44,9.82-40.64,20.57-11.19,10.75-18.92,24.61-22.18,39.78-3.26,15.17-1.92,30.98,3.87,45.38,5.78,14.4,15.73,26.75,28.58,35.46s28.01,13.37,43.54,13.4ZM1519.02,401.89c-18.93,0-35.06-15.77-35.06-39.66s16.13-40.2,35.06-40.2,34.88,15.77,34.88,39.66-15.77,40.2-34.88,40.2ZM1508.56,436.59c8.87.22,17.66-1.8,25.53-5.88,7.88-4.08,14.6-10.09,19.54-17.46v20.55h39.93v-195.58h-40.74v70.84c-5.28-6.89-12.11-12.43-19.95-16.16-7.83-3.73-16.44-5.54-25.12-5.29-33.98,0-65.34,26.23-65.34,74.09s31.9,74.9,65.34,74.9h.81ZM1329.47,350.88c3.34-18.57,14.33-30.64,31.01-30.64s27.85,12.26,30.28,30.64h-61.29ZM1364.53,437.13c11.21.37,22.35-1.89,32.54-6.58,10.18-4.69,19.14-11.7,26.14-20.46l-23.26-20.73c-4.47,4.75-9.88,8.51-15.88,11.06-6.01,2.54-12.47,3.81-19,3.73-8.31.55-16.53-2.05-23.02-7.28s-10.79-12.7-12.04-20.94h100.05c0-3.7.54-7.57.54-10.64,0-40.74-22.08-77.96-70.12-77.96-41.64,0-71.03,33.71-71.03,74.63-.39,9.96,1.28,19.89,4.92,29.17,3.63,9.28,9.15,17.7,16.21,24.74,7.05,7.04,15.49,12.54,24.78,16.15,9.28,3.61,19.22,5.26,29.17,4.84v.27ZM1228.53,433.8h40.56v-195.58h-40.74v195.58h.18Z"/>
  <path class="cls-2" d="M1292.61,561.22c-1.85.83-3.78,1.58-5.78,2.34-2.25.8-4.54,1.47-6.88,1.99-2.68.55-5.85,1.03-9.42,1.45-3.58.41-7.99.48-13.08.48-5.92.1-11.82-.86-17.41-2.82-4.76-1.72-9.04-4.58-12.45-8.33-3.53-3.95-6.09-8.66-7.5-13.76-1.79-5.88-2.65-12.01-2.55-18.16-.11-6.17.92-12.3,3.03-18.1,1.88-4.66,4.74-8.87,8.4-12.32,3.96-3.56,8.66-6.21,13.76-7.77,5.83-1.8,11.92-2.69,18.03-2.61h7.63c2.47.18,4.93.5,7.37.96,2.5.49,4.98,1.11,7.43,1.86,2.6.85,5.15,1.86,7.63,3.03l-1.92,16.99h-1.17c-3.68-2.17-7.64-3.81-11.77-4.89-4.7-1.16-9.53-1.71-14.38-1.65-3.2-.04-6.38.45-9.43,1.44-2.71.9-5.18,2.41-7.22,4.4-2.15,2.23-3.77,4.91-4.75,7.84-1.28,3.65-1.96,7.49-1.99,11.35-.07,4.05.34,8.09,1.23,12.04.65,3.03,2.02,5.86,4,8.26,1.82,2.17,4.2,3.81,6.88,4.75,3.4,1.07,6.96,1.58,10.52,1.51h8.26l2.68-.55v-13.76h-14.44v-16.45h34.81v40.46h.48ZM1310.3,506.18l17.54-1.31.9,7.98c1.59-1.51,3.32-2.87,5.16-4.06,1.48-.95,3.04-1.76,4.68-2.41,1.29-.58,2.66-1,4.06-1.24,1.21-.1,2.43-.1,3.64,0h3.86c.83.07,1.66.21,2.47.41.73.09,1.44.25,2.14.48l-1.52,14.59h-1.24c-.61-.29-1.26-.52-1.92-.69-.81-.26-1.64-.46-2.48-.62l-2.61-.48h-2.21c-2.34.02-4.67.44-6.88,1.24-2.42.95-4.61,2.43-6.4,4.34v41.97h-19.06v-60.41l-.13.21ZM1425.69,536.45c.12,4.26-.46,8.52-1.72,12.59-1.26,3.71-3.35,7.08-6.13,9.84-2.87,2.82-6.35,4.94-10.18,6.19-9.31,2.84-19.25,2.84-28.55,0-3.84-1.24-7.33-3.36-10.19-6.19-2.77-2.76-4.87-6.13-6.12-9.84-1.44-4.21-2.14-8.63-2.07-13.07-.07-4.49.63-8.96,2.07-13.21,1.24-3.74,3.33-7.13,6.12-9.91,2.86-2.86,6.35-5,10.19-6.26,9.29-2.93,19.26-2.93,28.55,0,3.83,1.28,7.32,3.42,10.18,6.26,2.79,2.78,4.89,6.17,6.13,9.91,1.44,4.25,2.14,8.72,2.06,13.21l-.34.48ZM1405.94,536.45c.05-2.78-.23-5.55-.83-8.26-.42-1.96-1.24-3.81-2.4-5.44-1.05-1.37-2.46-2.41-4.06-3.03-3.65-1.19-7.58-1.19-11.22,0-1.61.61-3.01,1.66-4.06,3.03-1.16,1.63-1.98,3.48-2.41,5.44-.59,2.71-.87,5.48-.82,8.26-.05,2.73.23,5.46.82,8.12.42,1.92,1.24,3.72,2.41,5.3,1.05,1.37,2.45,2.41,4.06,3.03,3.64,1.19,7.57,1.19,11.22,0,1.6-.61,3.01-1.66,4.06-3.03,1.17-1.57,1.99-3.38,2.4-5.3.6-2.66.88-5.39.83-8.12ZM1499.66,566.25l-17.55,1.24-.82-7.98c-2,1.38-3.86,2.61-5.58,3.65-1.63.99-3.36,1.82-5.16,2.48-1.64.66-3.35,1.14-5.09,1.45-1.89.29-3.8.42-5.71.41-2.93.06-5.85-.31-8.67-1.1-2.44-.58-4.68-1.82-6.47-3.58-1.69-1.77-2.94-3.92-3.65-6.26-.83-3.1-1.22-6.29-1.17-9.5v-41.29h19.06v37.78c-.02,1.59.12,3.18.42,4.75.16,1.14.63,2.21,1.37,3.1.73.82,1.69,1.4,2.76,1.65,1.49.42,3.05.61,4.61.55,1.16.1,2.34.1,3.5,0,1.19-.18,2.34-.51,3.44-.96,1.08-.36,2.1-.87,3.03-1.51.87-.61,1.64-1.35,2.27-2.2v-42.66h19.41v60ZM1518.37,505.97l17.69-1.31.75,7.29c2.78-2.24,5.86-4.08,9.15-5.44,3.48-1.28,7.17-1.91,10.88-1.86,3.46-.06,6.9.57,10.11,1.86,2.93,1.2,5.53,3.09,7.57,5.51,2.2,2.71,3.82,5.85,4.75,9.22,1.11,4.17,1.64,8.48,1.58,12.8.1,4.87-.6,9.73-2.06,14.38-1.2,3.68-3.14,7.08-5.71,9.98-2.31,2.57-5.19,4.58-8.4,5.85-3.24,1.3-6.7,1.95-10.18,1.93-3.09.03-6.17-.18-9.22-.62-2.69-.43-5.31-1.15-7.85-2.13v25.8h-19.06v-83.26ZM1537.43,550.7c1.53,1.02,3.23,1.74,5.03,2.13,1.67.34,3.38.52,5.09.55,2.38.1,4.75-.42,6.88-1.51,1.71-.94,3.13-2.32,4.13-3.99.98-1.74,1.64-3.66,1.92-5.64.3-2.28.44-4.58.42-6.88.04-2.72-.17-5.44-.62-8.12-.3-1.86-.98-3.64-2-5.23-.81-1.33-2.04-2.35-3.51-2.89-1.61-.58-3.31-.86-5.02-.83-.98-.1-1.98-.1-2.96,0-1.12.21-2.22.49-3.3.83-1.13.35-2.24.79-3.3,1.31-1.05.52-2.04,1.15-2.96,1.86v27.52l.2.89Z"/>
</svg>